<svg width="163" height="56" viewBox="0 0 163 56" fill="none" xmlns="http://www.w3.org/2000/svg">
<path d="M10.4125 27.9717C7.51289 23.2828 5.96088 17.7349 7.00395 12.1139C7.35978 10.1967 8.89823 8.70719 10.8246 8.40382C12.548 8.13223 13.7938 7.99617 16.235 8.19903C15.3553 9.65956 14.8348 11.1162 14.2875 12.5319C13.0682 12.4876 11.826 12.7315 11.4326 12.8529C10.4418 16.5149 11.7203 22.7846 15.5828 27.9717H10.4125Z" fill="#2058BB"/>
<path d="M15.1391 16.56C16.4043 11.1941 19.2299 6.17357 23.942 2.93659C25.5494 1.8324 27.6905 1.86716 29.2672 3.01463C30.6778 4.04129 31.6549 4.82609 33.2378 6.69569C31.5829 7.1063 30.1848 7.76835 28.7967 8.38246C27.9658 7.48888 26.9151 6.78303 26.551 6.59064C23.2611 8.4795 19.7317 13.8171 18.7951 20.216L15.1391 16.56Z" fill="#2058BB"/>
<path d="M26.5508 11.8331C31.2398 8.93344 36.7876 7.38129 42.4086 8.42437C44.326 8.7802 45.8153 10.3186 46.1188 12.245C46.3903 13.9684 46.5263 15.2142 46.3236 17.6556C44.8631 16.7758 43.4064 16.2554 41.9907 15.7079C42.0349 14.4887 41.7911 13.2466 41.6696 12.8531C38.0076 11.8624 31.7378 13.1409 26.5508 17.0033V11.8331Z" fill="#2058BB"/>
<path d="M37.963 16.5597C43.3289 17.8249 48.3493 20.6504 51.5863 25.3626C52.6906 26.9699 52.6558 29.111 51.5083 30.6878C50.4817 32.0985 49.6969 33.0755 47.8273 34.6584C47.4165 33.0036 46.7546 31.6054 46.1405 30.2174C47.0341 29.3865 47.7398 28.3358 47.9323 27.9717C46.0433 24.6816 40.7059 21.1523 34.307 20.2157L37.963 16.5597Z" fill="#2058BB"/>
<path d="M42.6901 27.9712C45.5898 32.6601 47.1418 38.208 46.0987 43.829C45.7429 45.7464 44.2044 47.2357 42.2781 47.5392C40.5546 47.8107 39.3088 47.9469 36.8676 47.7439C37.7473 46.2835 38.2677 44.8268 38.8151 43.411C40.0345 43.4553 41.2766 43.2114 41.6701 43.0902C42.6607 39.428 41.3823 33.1583 37.5197 27.9712H42.6901Z" fill="#2058BB"/>
<path d="M37.9631 39.3836C36.6978 44.7494 33.8723 49.7698 29.1601 53.0068C27.5528 54.1111 25.4117 54.0764 23.835 52.9289C22.4244 51.9022 21.4473 51.1175 19.8644 49.2479C21.5193 48.8371 22.9173 48.1752 24.3053 47.5611C25.1364 48.4545 26.1871 49.1604 26.5512 49.3529C29.8411 47.4639 33.3705 42.1265 34.3071 35.7276L37.9631 39.3836Z" fill="#2058BB"/>
<path d="M26.5511 44.1105C21.8621 47.0101 16.3143 48.5621 10.6933 47.5192C8.77592 47.1634 7.28658 45.6249 6.98307 43.6986C6.71161 41.9751 6.57543 40.7292 6.77828 38.288C8.23895 39.1678 9.69548 39.6882 11.1112 40.2355C11.067 41.4548 11.3109 42.697 11.4323 43.0904C15.0943 44.0812 21.364 42.8027 26.5511 38.9401V44.1105Z" fill="#2058BB"/>
<path d="M15.1395 39.3836C9.77364 38.1184 4.75324 35.293 1.51613 30.5807C0.411945 28.9734 0.446702 26.8322 1.5943 25.2555C2.62084 23.8449 3.40563 22.8678 5.27536 21.2849C5.68597 22.9398 6.34789 24.3379 6.962 25.726C6.06842 26.5569 5.3627 27.6076 5.17019 27.9717C7.05904 31.2618 12.3966 34.791 18.7955 35.7276L15.1395 39.3836Z" fill="#2058BB"/>
<path d="M87.3772 20.7037H83.7309V15.9207H87.2576C88.4544 15.9207 89.3613 16.1128 89.9524 16.4918C90.5285 16.8611 90.8085 17.4448 90.8085 18.2762C90.8085 19.9096 89.6861 20.7037 87.3772 20.7037ZM83.7309 8.84591H86.445C87.7053 8.84591 88.651 8.98736 89.2555 9.26654C89.8261 9.53035 90.1035 10.0578 90.1035 10.8789C90.1035 11.2606 90.0108 11.6099 89.8245 11.923C89.5877 12.3596 89.256 12.6469 88.8107 12.8015C88.3479 12.962 87.6766 13.0434 86.8156 13.0434H83.7309V8.84591ZM91.545 14.2328C93.1165 13.3874 93.9127 12.1039 93.9127 10.4127C93.9127 9.88546 93.8247 9.37794 93.6517 8.90409C93.4787 8.43024 93.2238 7.9913 92.8937 7.59937C92.5655 7.20901 92.1816 6.88148 91.7535 6.62591C91.2517 6.3221 90.6773 6.11353 90.046 6.00665C89.4267 5.90214 88.6855 5.84915 87.8431 5.84915H82.1666C81.3678 5.84915 80.7754 6.03659 80.4064 6.40559C80.0369 6.77505 79.8496 7.37521 79.8496 8.19004V23.7004H87.5207C88.4483 23.7004 89.2718 23.6535 89.968 23.5613C90.6719 23.4688 91.3055 23.306 91.8537 23.0769C92.7326 22.6909 93.4409 22.0848 93.9582 21.2757C94.4751 20.4675 94.7375 19.5469 94.7375 18.5393C94.7375 16.469 93.6641 15.0219 91.545 14.2328Z" fill="#2058BB"/>
<path d="M68.4368 9.99937L68.4582 10.0582L68.4798 9.99937L70.8295 16.55H66.0869L68.4368 9.99937ZM65.0425 19.5345H71.874L73.4036 23.6713H77.4219L76.3058 20.8493C76.2508 20.7047 76.1908 20.5507 76.1213 20.3785L71.2002 7.87665C71.0182 7.4115 70.8205 7.01843 70.6122 6.70818C70.3967 6.38674 70.1097 6.12304 69.7592 5.92453C69.4061 5.72478 68.9686 5.62343 68.4582 5.62332C67.9479 5.62343 67.5104 5.72478 67.1573 5.92453C66.8069 6.12304 66.5199 6.38674 66.3043 6.70818C66.096 7.01843 65.8983 7.4115 65.7164 7.87665L60.7953 20.3785C60.7258 20.5507 60.6658 20.7047 60.6107 20.8493L59.4946 23.6713H63.513L65.0425 19.5345Z" fill="#2058BB"/>
<path d="M104.618 20.7037H100.972V15.9207H104.499C105.696 15.9207 106.602 16.1128 107.194 16.4918C107.77 16.8611 108.05 17.4448 108.05 18.2762C108.05 19.9096 106.927 20.7037 104.618 20.7037ZM100.972 8.84591H103.686C104.946 8.84591 105.892 8.98736 106.497 9.26654C107.067 9.53035 107.345 10.0578 107.345 10.8789C107.345 11.2606 107.252 11.6099 107.066 11.923C106.829 12.3596 106.497 12.6469 106.052 12.8015C105.589 12.962 104.918 13.0434 104.057 13.0434H100.972V8.84591ZM108.786 14.2328C110.358 13.3874 111.154 12.1039 111.154 10.4127C111.154 9.88546 111.066 9.37794 110.893 8.90409C110.72 8.43024 110.465 7.9913 110.135 7.59937C109.807 7.20901 109.423 6.88148 108.995 6.62591C108.493 6.3221 107.919 6.11353 107.287 6.00665C106.668 5.90214 105.927 5.84915 105.084 5.84915H99.4077C98.6091 5.84915 98.0167 6.03659 97.6476 6.40559C97.2781 6.77505 97.0909 7.37521 97.0909 8.19004V23.7004H104.762C105.69 23.7004 106.513 23.6535 107.209 23.5613C107.913 23.4688 108.547 23.306 109.095 23.0769C109.974 22.6909 110.682 22.0848 111.2 21.2757C111.716 20.4675 111.979 19.5469 111.979 18.5393C111.979 16.469 110.905 15.0219 108.786 14.2328Z" fill="#2058BB"/>
<path d="M61.185 40.004V33.6651H67.0019C69.67 33.6651 71.0041 34.7755 71.0041 36.9961C71.0041 37.4105 70.9212 37.7999 70.7555 38.1645C70.5898 38.5291 70.3412 38.8522 70.0097 39.134C69.6783 39.3991 69.264 39.6146 68.7668 39.7803C68.2696 39.9294 67.6813 40.004 67.0019 40.004H61.185ZM59.4946 32.2233V49.9722H67.0019C67.9631 49.9722 68.7834 49.8894 69.4629 49.7236C70.1589 49.5414 70.7389 49.3176 71.2029 49.0525C71.6835 48.7707 72.0647 48.4476 72.3464 48.083C72.6282 47.7184 72.8436 47.3538 72.9927 46.9892C73.1419 46.6081 73.2413 46.2435 73.291 45.8955C73.3408 45.5309 73.3656 45.2077 73.3656 44.926C73.3656 43.7659 73.0259 42.7964 72.3464 42.0175C71.667 41.2221 70.7555 40.7498 69.612 40.6006V40.5509C70.076 40.4515 70.4903 40.2775 70.8549 40.0289C71.2361 39.7803 71.5592 39.482 71.8244 39.134C72.1061 38.7694 72.3216 38.3716 72.4707 37.9408C72.6199 37.4933 72.6944 37.0376 72.6944 36.5735C72.6944 35.7449 72.537 35.0572 72.2221 34.5103C71.9073 33.9468 71.4847 33.4994 70.9544 33.1679C70.4406 32.8199 69.8357 32.5796 69.1397 32.4471C68.4602 32.2979 67.7476 32.2233 67.0019 32.2233H59.4946ZM61.185 48.5304V41.4458H67.0019C68.5099 41.4458 69.6617 41.7358 70.4572 42.3158C71.2692 42.8793 71.6753 43.7328 71.6753 44.8763C71.6753 45.5889 71.551 46.1855 71.3024 46.6661C71.0538 47.1301 70.7141 47.503 70.2832 47.7847C69.8523 48.0664 69.3551 48.2653 68.7917 48.3813C68.2282 48.4807 67.6316 48.5304 67.0019 48.5304H61.185Z" fill="#2058BB"/>
<path d="M87.4104 49.9722V37.1453H85.8444V43.8819C85.8444 44.5282 85.7698 45.1663 85.6206 45.796C85.4715 46.4092 85.2395 46.9561 84.9246 47.4367C84.6097 47.9173 84.212 48.3067 83.7314 48.605C83.2508 48.8868 82.6708 49.0276 81.9913 49.0276C80.7484 49.0276 79.87 48.7293 79.3563 48.1327C78.8591 47.5361 78.594 46.6578 78.5608 45.4977V37.1453H76.9948V45.4729C76.9948 46.2352 77.0776 46.9146 77.2433 47.5113C77.4091 48.1079 77.6659 48.6133 78.014 49.0276C78.3785 49.4419 78.8426 49.7568 79.406 49.9722C79.9861 50.2042 80.6821 50.3203 81.4941 50.3203C82.4553 50.3203 83.3254 50.0965 84.1043 49.6491C84.8997 49.1851 85.5046 48.5222 85.9189 47.6604H85.9686V49.9722H87.4104Z" fill="#2058BB"/>
<path d="M99.2955 40.8989H100.862C100.828 40.2029 100.688 39.598 100.439 39.0842C100.19 38.5705 99.8506 38.1396 99.4198 37.7916C99.0055 37.4436 98.5166 37.1867 97.9531 37.021C97.4062 36.8553 96.8096 36.7724 96.1633 36.7724C95.5999 36.7724 95.0281 36.8387 94.4481 36.9713C93.8846 37.1039 93.3709 37.311 92.9069 37.5927C92.4428 37.8745 92.0617 38.2473 91.7634 38.7114C91.4816 39.1754 91.3408 39.7306 91.3408 40.3769C91.3408 40.9238 91.4319 41.3878 91.6142 41.769C91.7965 42.1335 92.0451 42.4484 92.36 42.7136C92.6914 42.9622 93.0726 43.1776 93.5035 43.3599C93.9343 43.5256 94.4067 43.6748 94.9204 43.8073L96.9339 44.2548C97.2819 44.3377 97.6217 44.4371 97.9531 44.5531C98.3011 44.6691 98.6077 44.8183 98.8729 45.0006C99.138 45.1663 99.3452 45.3817 99.4943 45.6469C99.6601 45.8955 99.7429 46.2103 99.7429 46.5915C99.7429 47.0389 99.6269 47.4201 99.3949 47.735C99.1795 48.0333 98.8977 48.2819 98.5497 48.4807C98.2017 48.6796 97.8205 48.8205 97.4062 48.9033C97.0085 48.9862 96.619 49.0276 96.2379 49.0276C95.1938 49.0276 94.3155 48.7625 93.6029 48.2321C92.9069 47.6853 92.5257 46.8815 92.4594 45.8209H90.8933C91.0259 47.3952 91.5562 48.5387 92.4843 49.2513C93.4289 49.9639 94.6552 50.3203 96.1633 50.3203C96.7599 50.3203 97.3648 50.254 97.978 50.1214C98.5911 49.9888 99.138 49.7734 99.6186 49.4751C100.116 49.1602 100.522 48.7625 100.837 48.2819C101.152 47.7847 101.309 47.1881 101.309 46.4921C101.309 45.9286 101.201 45.4397 100.986 45.0254C100.77 44.6111 100.489 44.2631 100.141 43.9814C99.8092 43.6996 99.4198 43.4759 98.9723 43.3102C98.5414 43.1279 98.1023 43.0036 97.6548 42.9373L95.5667 42.465C95.3016 42.3987 95.0115 42.3158 94.6967 42.2164C94.3818 42.1004 94.0918 41.9595 93.8266 41.7938C93.5615 41.6281 93.3377 41.4292 93.1554 41.1972C92.9897 40.9486 92.9069 40.6503 92.9069 40.3023C92.9069 39.888 92.998 39.54 93.1803 39.2583C93.3626 38.9765 93.6029 38.7528 93.9012 38.5871C94.1995 38.4048 94.5227 38.2805 94.8707 38.2142C95.2353 38.1313 95.5916 38.0899 95.9396 38.0899C96.387 38.0899 96.8096 38.1479 97.2074 38.2639C97.6051 38.3634 97.9531 38.5291 98.2514 38.7611C98.5663 38.9931 98.8149 39.2914 98.9972 39.656C99.1795 40.004 99.2789 40.4183 99.2955 40.8989Z" fill="#2058BB"/>
<path d="M104.85 32.2233V34.734H106.416V32.2233H104.85ZM104.85 37.1453V49.9722H106.416V37.1453H104.85Z" fill="#2058BB"/>
<path d="M110.631 37.1453V49.9722H112.197V42.4899C112.214 41.8601 112.313 41.2801 112.496 40.7498C112.695 40.2029 112.96 39.7389 113.291 39.3577C113.639 38.96 114.053 38.6534 114.534 38.4379C115.031 38.2059 115.595 38.0899 116.224 38.0899C116.854 38.0899 117.376 38.1893 117.791 38.3882C118.221 38.5871 118.561 38.8605 118.81 39.2085C119.058 39.5566 119.232 39.9709 119.332 40.4515C119.431 40.9155 119.481 41.4209 119.481 41.9678V49.9722H121.047V41.7192C121.047 40.9569 120.972 40.2692 120.823 39.656C120.674 39.0428 120.417 38.5291 120.053 38.1148C119.688 37.6839 119.199 37.3524 118.586 37.1204C117.989 36.8884 117.244 36.7724 116.349 36.7724C115.437 36.7724 114.6 37.0127 113.838 37.4933C113.076 37.9573 112.545 38.5788 112.247 39.3577H112.197V37.1453H110.631Z" fill="#2058BB"/>
<path d="M134.473 42.6639H126.171C126.237 42.0838 126.369 41.5204 126.568 40.9735C126.784 40.41 127.065 39.9211 127.413 39.5068C127.761 39.076 128.184 38.7362 128.681 38.4876C129.178 38.2225 129.75 38.0899 130.396 38.0899C131.026 38.0899 131.59 38.2225 132.087 38.4876C132.584 38.7362 133.007 39.076 133.355 39.5068C133.703 39.9211 133.968 40.4017 134.15 40.9486C134.349 41.4955 134.457 42.0673 134.473 42.6639ZM126.171 43.9814H136.039C136.072 43.0865 135.99 42.2081 135.791 41.3464C135.592 40.468 135.26 39.6974 134.796 39.0345C134.349 38.3551 133.761 37.8082 133.031 37.3939C132.302 36.9796 131.424 36.7724 130.396 36.7724C129.386 36.7724 128.507 36.9713 127.761 37.369C127.032 37.7502 126.436 38.2639 125.972 38.9102C125.508 39.54 125.16 40.2609 124.928 41.0729C124.712 41.885 124.604 42.7136 124.604 43.5588C124.604 44.4702 124.712 45.3403 124.928 46.1689C125.16 46.9809 125.508 47.7018 125.972 48.3316C126.436 48.9448 127.032 49.4336 127.761 49.7982C128.507 50.1462 129.386 50.3203 130.396 50.3203C132.021 50.3203 133.272 49.9225 134.15 49.127C135.045 48.3316 135.658 47.2047 135.99 45.7463H134.424C134.175 46.7406 133.727 47.5361 133.081 48.1327C132.435 48.7293 131.54 49.0276 130.396 49.0276C129.651 49.0276 129.013 48.8702 128.482 48.5553C127.952 48.2404 127.513 47.8427 127.165 47.3621C126.817 46.8815 126.56 46.3429 126.394 45.7463C126.245 45.1331 126.171 44.5448 126.171 43.9814Z" fill="#2058BB"/>
<path d="M147.065 40.8989H148.631C148.598 40.2029 148.457 39.598 148.209 39.0842C147.96 38.5705 147.621 38.1396 147.19 37.7916C146.775 37.4436 146.286 37.1867 145.723 37.021C145.176 36.8553 144.58 36.7724 143.933 36.7724C143.37 36.7724 142.798 36.8387 142.218 36.9713C141.655 37.1039 141.141 37.311 140.677 37.5927C140.213 37.8745 139.832 38.2473 139.533 38.7114C139.252 39.1754 139.111 39.7306 139.111 40.3769C139.111 40.9238 139.202 41.3878 139.384 41.769C139.566 42.1335 139.815 42.4484 140.13 42.7136C140.461 42.9622 140.842 43.1776 141.273 43.3599C141.704 43.5256 142.177 43.6748 142.69 43.8073L144.704 44.2548C145.052 44.3377 145.392 44.4371 145.723 44.5531C146.071 44.6691 146.378 44.8183 146.643 45.0006C146.908 45.1663 147.115 45.3817 147.264 45.6469C147.43 45.8955 147.513 46.2103 147.513 46.5915C147.513 47.0389 147.397 47.4201 147.165 47.735C146.949 48.0333 146.668 48.2819 146.32 48.4807C145.972 48.6796 145.59 48.8205 145.176 48.9033C144.778 48.9862 144.389 49.0276 144.008 49.0276C142.964 49.0276 142.085 48.7625 141.373 48.2321C140.677 47.6853 140.296 46.8815 140.229 45.8209H138.663C138.796 47.3952 139.326 48.5387 140.254 49.2513C141.199 49.9639 142.425 50.3203 143.933 50.3203C144.53 50.3203 145.135 50.254 145.748 50.1214C146.361 49.9888 146.908 49.7734 147.389 49.4751C147.886 49.1602 148.292 48.7625 148.607 48.2819C148.921 47.7847 149.079 47.1881 149.079 46.4921C149.079 45.9286 148.971 45.4397 148.756 45.0254C148.54 44.6111 148.259 44.2631 147.911 43.9814C147.579 43.6996 147.19 43.4759 146.742 43.3102C146.311 43.1279 145.872 43.0036 145.425 42.9373L143.337 42.465C143.071 42.3987 142.781 42.3158 142.467 42.2164C142.152 42.1004 141.862 41.9595 141.597 41.7938C141.331 41.6281 141.108 41.4292 140.925 41.1972C140.76 40.9486 140.677 40.6503 140.677 40.3023C140.677 39.888 140.768 39.54 140.95 39.2583C141.132 38.9765 141.373 38.7528 141.671 38.5871C141.969 38.4048 142.293 38.2805 142.641 38.2142C143.005 38.1313 143.361 38.0899 143.709 38.0899C144.157 38.0899 144.58 38.1479 144.977 38.2639C145.375 38.3634 145.723 38.5291 146.021 38.7611C146.336 38.9931 146.585 39.2914 146.767 39.656C146.949 40.004 147.049 40.4183 147.065 40.8989Z" fill="#2058BB"/>
<path d="M160.276 40.8989H161.842C161.809 40.2029 161.668 39.598 161.42 39.0842C161.171 38.5705 160.831 38.1396 160.401 37.7916C159.986 37.4436 159.497 37.1867 158.934 37.021C158.387 36.8553 157.79 36.7724 157.144 36.7724C156.581 36.7724 156.009 36.8387 155.429 36.9713C154.865 37.1039 154.352 37.311 153.888 37.5927C153.424 37.8745 153.042 38.2473 152.744 38.7114C152.462 39.1754 152.322 39.7306 152.322 40.3769C152.322 40.9238 152.413 41.3878 152.595 41.769C152.777 42.1335 153.026 42.4484 153.341 42.7136C153.672 42.9622 154.053 43.1776 154.484 43.3599C154.915 43.5256 155.387 43.6748 155.901 43.8073L157.915 44.2548C158.263 44.3377 158.602 44.4371 158.934 44.5531C159.282 44.6691 159.589 44.8183 159.854 45.0006C160.119 45.1663 160.326 45.3817 160.475 45.6469C160.641 45.8955 160.724 46.2103 160.724 46.5915C160.724 47.0389 160.608 47.4201 160.376 47.735C160.16 48.0333 159.879 48.2819 159.531 48.4807C159.182 48.6796 158.801 48.8205 158.387 48.9033C157.989 48.9862 157.6 49.0276 157.219 49.0276C156.175 49.0276 155.296 48.7625 154.584 48.2321C153.888 47.6853 153.506 46.8815 153.44 45.8209H151.874C152.007 47.3952 152.537 48.5387 153.465 49.2513C154.41 49.9639 155.636 50.3203 157.144 50.3203C157.741 50.3203 158.346 50.254 158.959 50.1214C159.572 49.9888 160.119 49.7734 160.599 49.4751C161.097 49.1602 161.503 48.7625 161.817 48.2819C162.132 47.7847 162.29 47.1881 162.29 46.4921C162.29 45.9286 162.182 45.4397 161.967 45.0254C161.751 44.6111 161.469 44.2631 161.121 43.9814C160.79 43.6996 160.401 43.4759 159.953 43.3102C159.522 43.1279 159.083 43.0036 158.636 42.9373L156.548 42.465C156.282 42.3987 155.992 42.3158 155.677 42.2164C155.363 42.1004 155.073 41.9595 154.807 41.7938C154.542 41.6281 154.319 41.4292 154.136 41.1972C153.971 40.9486 153.888 40.6503 153.888 40.3023C153.888 39.888 153.979 39.54 154.161 39.2583C154.343 38.9765 154.584 38.7528 154.882 38.5871C155.18 38.4048 155.503 38.2805 155.851 38.2142C156.216 38.1313 156.572 38.0899 156.92 38.0899C157.368 38.0899 157.79 38.1479 158.188 38.2639C158.586 38.3634 158.934 38.5291 159.232 38.7611C159.547 38.9931 159.796 39.2914 159.978 39.656C160.16 40.004 160.26 40.4183 160.276 40.8989Z" fill="#2058BB"/>
</svg>
