<svg width="96" height="33" viewBox="0 0 96 33" fill="none" xmlns="http://www.w3.org/2000/svg">
<g clip-path="url(#clip0_1_3138)">
<g opacity="0.8">
<path opacity="0.8" fill-rule="evenodd" clip-rule="evenodd" d="M44.487 2.5H6.794C5.78942 2.49973 4.82576 2.898 4.11447 3.60741C3.40319 4.31682 3.00238 5.27942 3 6.284L3 26.596C3.00212 27.6008 3.40281 28.5636 4.11412 29.2732C4.82543 29.9829 5.78925 30.3813 6.794 30.381H36.667C38.352 30.381 39.908 29.676 41.304 28.289C41.589 28.001 42.022 27.572 42.517 27.082C43.962 25.654 45.944 23.698 46.592 22.994C47.6733 21.8497 48.2761 20.3353 48.277 18.761V6.284C48.2754 5.27987 47.8754 4.31741 47.1648 3.60794C46.4542 2.89848 45.4911 2.5 44.487 2.5ZM33.175 9.525C33.833 9.538 34.475 9.73 35.033 10.081C35.526 10.369 35.92 10.8 36.163 11.316C36.392 11.812 36.493 12.356 36.461 12.901C36.4094 13.6708 36.1498 14.4122 35.7098 15.046C35.2699 15.6799 34.6661 16.1824 33.963 16.5C32.3659 17.2252 30.5824 17.4339 28.861 17.097C27.8148 16.8778 26.8287 16.4339 25.971 15.796C24.9322 15.0056 24.0667 14.0104 23.428 12.872C22.5766 11.2836 21.2757 9.98164 19.688 9.129C17.152 7.853 13.474 7.717 11.418 10.447C9.304 13.264 9.135 16.5 10.96 19.357C13.197 22.849 18.634 25.699 25.74 24.192C33.674 22.512 36.874 17.258 38.092 14.276L38.137 14.161C38.5433 13.025 39.0403 11.9234 39.623 10.867C39.8142 10.5212 40.0875 10.2277 40.4189 10.0124C40.7502 9.79701 41.1293 9.66639 41.523 9.632C41.908 9.57018 42.3026 9.6185 42.6612 9.77138C43.0199 9.92426 43.328 10.1755 43.55 10.496C43.932 11.036 43.98 11.743 43.673 12.329C43.505 12.636 43.228 12.869 42.897 12.984C41.584 13.395 41.485 12.23 41.485 12.23C42.067 12.345 42.46 12.164 42.588 11.818C42.644 11.6 42.6143 11.3688 42.505 11.172C42.4106 11.0476 42.283 10.9525 42.1368 10.8977C41.9906 10.8428 41.8319 10.8304 41.679 10.862C40.854 10.958 40.573 11.468 39.301 14.635L39.256 14.75C38.3281 17.0394 36.9206 19.1033 35.128 20.803C32.5878 23.1546 29.4424 24.7517 26.045 25.415C22.815 26.149 19.441 25.965 16.31 24.884C13.7026 24.0083 11.4556 22.2996 9.915 20.021C8.93826 18.5331 8.43453 16.7845 8.47 15.005C8.54918 13.0774 9.23553 11.2242 10.431 9.71C10.9779 8.98604 11.6661 8.38063 12.4539 7.93045C13.2417 7.48028 14.1126 7.19469 15.014 7.091C16.8149 6.88581 18.6366 7.20894 20.257 8.021C21.2516 8.52273 22.1457 9.20265 22.895 10.027C23.514 10.705 24.055 11.449 24.509 12.247C26.945 16.447 30.859 16.554 33.459 15.372C33.9521 15.1449 34.3759 14.7905 34.6866 14.3453C34.9973 13.9001 35.1839 13.3802 35.227 12.839C35.2616 12.5068 35.2026 12.1715 35.0567 11.8711C34.9107 11.5707 34.6836 11.3171 34.401 11.139C33.307 10.492 32.469 10.772 32.051 11.246C31.8409 11.4691 31.7179 11.7603 31.7045 12.0664C31.6911 12.3726 31.7881 12.6734 31.978 12.914C32.155 13.115 32.522 13.062 32.679 13.016C33.051 12.914 33.319 12.111 33.319 12.111C33.519 12.221 33.683 12.386 33.794 12.584C33.8684 12.7204 33.9116 12.8715 33.9207 13.0265C33.9297 13.1816 33.9043 13.3367 33.8463 13.4808C33.7882 13.6249 33.699 13.7543 33.585 13.8598C33.4711 13.9653 33.3351 14.0443 33.187 14.091C32.312 14.478 31.433 14.355 30.929 13.716C30.5607 13.2353 30.3773 12.6383 30.4122 12.0337C30.4471 11.4291 30.6979 10.8572 31.119 10.422C31.3784 10.1351 31.6959 9.90671 32.0504 9.75204C32.4049 9.59738 32.7883 9.51998 33.175 9.525ZM13.267 16.652C13.9165 18.0263 14.9637 19.1739 16.273 19.946C17.879 20.852 19.518 21.264 21.937 21.367C22.429 21.392 22.923 21.392 23.415 21.367C22.161 20.65 21.0247 19.7444 20.046 18.682C19.3046 17.8526 18.6489 16.9503 18.089 15.989L17.99 15.816C17.755 15.405 17.355 14.701 16.958 14.548C16.8398 14.4927 16.711 14.464 16.5805 14.464C16.45 14.464 16.3212 14.4927 16.203 14.548C16.1221 14.5903 16.0507 14.6487 15.9931 14.7195C15.9355 14.7903 15.8929 14.8722 15.868 14.96C15.874 15.209 15.926 15.455 16.021 15.685C16.468 16.499 17.007 17.261 17.627 17.954C18.04 18.406 19.126 19.601 19.126 19.601C18.4613 19.4998 17.827 19.2536 17.268 18.88C16.2335 18.2375 15.4086 17.3077 14.894 16.204C14.6863 15.7436 14.6035 15.2366 14.654 14.734C14.7112 14.4658 14.8262 14.2134 14.991 13.9942C15.1557 13.7751 15.3663 13.5945 15.608 13.465C15.8816 13.3185 16.1843 13.2348 16.4943 13.2199C16.8043 13.2051 17.1137 13.2594 17.4 13.379C18.226 13.692 18.725 14.594 19.051 15.191C19.084 15.244 19.113 15.301 19.146 15.351C19.662 16.233 20.266 17.061 20.95 17.821C22.2891 19.2643 23.9339 20.3901 25.764 21.116L27.961 21.853L25.706 22.314C24.4437 22.5493 23.1592 22.6445 21.876 22.598C19.254 22.478 17.45 22.022 15.662 21.029C14.1302 20.124 12.9037 18.7819 12.14 17.175C11.8171 16.4262 11.6691 15.6136 11.707 14.799C11.7205 13.8832 11.9784 12.9877 12.454 12.205C13.011 11.304 14.147 10.221 16.36 10.146C17.223 10.17 18.07 10.386 18.837 10.781C20.0999 11.4754 21.1318 12.5246 21.805 13.799C22.613 15.2775 23.7964 16.5168 25.236 17.3922C26.6757 18.2675 28.3206 18.7479 30.005 18.785C31.025 18.785 32.045 18.71 33.055 18.559C32.1969 19.3463 31.1174 19.8508 29.963 20.004C28.1078 19.952 26.2963 19.429 24.699 18.484C23.062 17.4926 21.7038 16.1014 20.752 14.441C20.1982 13.3755 19.3462 12.4943 18.3 11.905C17.7033 11.5945 17.0443 11.4225 16.372 11.402C15.042 11.439 14.072 11.929 13.482 12.86C13.1632 13.4352 12.9783 14.0749 12.9411 14.7314C12.9039 15.388 13.0153 16.0445 13.267 16.652ZM25.294 3.846C25.733 4.1 26.154 4.382 26.557 4.691C26.889 4.929 27.181 5.22 27.42 5.551C27.5241 5.69499 27.5964 5.85949 27.6321 6.03356C27.6678 6.20764 27.6661 6.38732 27.627 6.56068C27.588 6.73403 27.5125 6.89709 27.4056 7.03904C27.2987 7.18099 27.1628 7.29858 27.007 7.384C26.4985 6.74692 25.9469 6.1455 25.356 5.584C24.6172 4.88936 23.7827 4.30409 22.878 3.846H25.294ZM9.956 3.846C9.11274 4.17483 8.36094 4.70165 7.764 5.382C7.74164 4.84747 7.63569 4.31974 7.45 3.818L9.956 3.846ZM4.412 6.284C4.40848 5.85447 4.51703 5.43144 4.72695 5.05667C4.93686 4.68191 5.24089 4.36837 5.609 4.147C5.882 4.926 5.947 5.761 5.799 6.572C5.61993 7.49544 5.34304 8.3972 4.973 9.262C4.771 9.78 4.561 10.286 4.42 10.785L4.412 6.285V6.284ZM6.798 29.034C6.15093 29.0337 5.53035 28.777 5.07224 28.32C4.61413 27.863 4.35585 27.2431 4.354 26.596V25.361C5.18 26.716 6.27 27.782 8.004 29.03L6.798 29.034ZM11.009 29.034C10.2916 28.6016 9.60221 28.1243 8.945 27.605C7.06691 26.1421 5.50737 24.311 4.362 22.224V19.069C5.89 23.932 9.672 27.28 13.672 29.034H11.009ZM33.414 29.034C32.8124 28.6514 32.1645 28.347 31.486 28.128C29.922 27.741 28.489 28.058 26.826 28.388C24.6705 28.8642 22.4601 29.0442 20.256 28.923C18.3589 28.7762 16.4945 28.3458 14.725 27.646C13.04 26.9858 11.4979 26.0073 10.183 24.764C8.98926 23.6511 7.97044 22.3642 7.161 20.947C5.923 18.748 5.321 16.595 5.407 14.544C5.46 13.361 5.701 12.194 6.121 11.085C6.57418 9.9255 7.19148 8.83706 7.954 7.853C9.56443 5.74636 11.9357 4.35398 14.56 3.974C15.023 3.904 15.49 3.862 15.96 3.846H16.785C18.475 3.888 20.136 4.301 21.648 5.057C22.7979 5.65451 23.8391 6.44114 24.728 7.384C25.673 8.382 26.498 9.487 27.184 10.678C27.238 10.776 27.296 10.868 27.35 10.958C27.442 10.448 27.614 9.957 27.857 9.5C28.031 9.158 28.233 8.837 28.427 8.52C28.943 7.696 29.455 7.021 29.381 6.165C29.3257 5.66803 29.141 5.19427 28.8453 4.79102C28.5496 4.38778 28.1533 4.06916 27.696 3.867H29.7C30.114 4.1492 30.4394 4.54321 30.6382 5.00316C30.837 5.4631 30.9011 5.97005 30.823 6.465C30.699 7.458 29.968 8.38 29.481 9.166C29.291 9.476 29.109 9.768 28.957 10.068C28.5797 10.7775 28.4188 11.582 28.494 12.382C28.5633 12.9488 28.6879 13.5075 28.866 14.05C28.412 13.8924 27.9917 13.6509 27.627 13.338C27.0306 12.7395 26.5231 12.0586 26.12 11.316C24.688 8.866 22.995 7.132 21.084 6.152C19.6173 5.43169 18.003 5.06263 16.369 5.074C15.826 5.074 15.284 5.114 14.746 5.193C12.4501 5.53106 10.3765 6.75117 8.966 8.594C8.2808 9.49029 7.72533 10.4787 7.316 11.53C6.94063 12.5162 6.72459 13.5559 6.676 14.61C6.596 16.426 7.134 18.357 8.265 20.35C9.81555 23.1211 12.2564 25.2875 15.192 26.498C18.825 27.906 22.475 28.066 26.822 27.108C28.849 26.662 30.629 26.489 32.49 27.108C33.697 27.606 34.839 28.248 35.892 29.018L33.415 29.034H33.414ZM37.984 28.812C36.296 27.312 34.521 26.226 33.076 25.826L31.577 25.415C32.3752 25.0874 33.1431 24.6906 33.872 24.229C33.872 24.229 35.111 24.349 35.742 24.332C35.3981 24.597 35.037 24.8389 34.661 25.056C36.3475 25.863 37.901 26.9225 39.268 28.198C38.878 28.475 38.445 28.682 37.984 28.812ZM42.774 24.921C42.534 24.8011 42.3034 24.6634 42.084 24.509C41.4725 24.791 40.8334 25.0088 40.177 25.159C40.62 25.494 41.091 25.792 41.584 26.049L40.689 26.967C39.7907 26.4522 38.9505 25.842 38.183 25.147C37.8847 24.8694 37.5613 24.62 37.217 24.402C37.217 24.402 37.914 24.324 38.649 24.188C39.7153 23.9739 40.7521 23.6324 41.737 23.171L42.067 22.998L42.48 23.315C42.85 23.607 43.27 23.83 43.719 23.974C43.401 24.324 43.046 24.653 42.773 24.921H42.774ZM46.811 19.794C46.6419 20.6122 46.247 21.3668 45.671 21.972H45.647L45.498 22.158L44.908 22.763C44.3855 22.6739 43.8843 22.488 43.43 22.215C43.883 21.871 44.292 21.4726 44.648 21.029L45.028 20.404C45.028 20.404 46.266 20.194 46.852 19.58C46.861 19.555 46.799 19.794 46.811 19.794ZM46.927 6.832C46.0838 5.99618 45.0014 5.44332 43.83 5.25C42.3568 4.9794 40.8457 4.9889 39.376 5.278C38.806 5.384 38.252 5.558 37.724 5.798L37.411 5.954L37.105 5.794C36.0871 5.18896 34.8885 4.96234 33.72 5.154C33.817 5.636 33.846 6.128 33.806 6.617C34.7819 6.71733 35.731 6.9963 36.606 7.44C36.957 7.649 37.294 7.881 37.613 8.136C38.1904 7.57808 38.9009 7.17705 39.677 6.971C40.5673 6.69577 41.5046 6.60592 42.431 6.707C43.4656 6.79909 44.4599 7.1521 45.321 7.733C45.8035 8.0864 46.1982 8.54615 46.4744 9.07662C46.7507 9.6071 46.9011 10.194 46.914 10.792C46.9947 11.7265 46.8357 12.6661 46.452 13.522C45.754 14.996 44.111 16.022 42.117 16.256C41.625 17.5043 40.9179 18.6568 40.028 19.661C39.928 19.793 39.475 20.374 38.856 21.049C39.029 20.999 39.211 20.95 39.396 20.884C40.9597 20.4212 42.2958 19.3942 43.145 18.002L43.294 17.742L43.595 17.702C44.8649 17.4703 46.0374 16.8668 46.964 15.968V17.586C46.714 17.766 46.454 17.929 46.184 18.076C45.518 18.44 44.804 18.706 44.061 18.866C43.0342 20.3941 41.512 21.5214 39.751 22.058C38.931 22.328 38.079 22.492 37.217 22.548L35.619 22.651C36.496 21.971 37.282 21.181 37.956 20.3C38.545 19.552 39.096 18.776 39.606 17.973C40.086 17.25 40.492 16.48 40.816 15.675L41.229 14.617C41.485 14.701 41.746 14.768 42.009 14.819C42.6794 14.8805 43.3527 14.7391 43.9417 14.4131C44.5307 14.0871 45.0081 13.5917 45.312 12.991C45.6062 12.3237 45.7243 11.592 45.655 10.866C45.548 9.153 44.475 8.218 42.261 7.926C41.051 7.766 38.921 8.181 38.236 9.355L37.823 10.084L37.258 9.462C36.889 9.08892 36.4724 8.76614 36.019 8.502C35.1834 8.08737 34.2708 7.85071 33.339 7.807C32.9717 7.80353 32.6047 7.83096 32.242 7.889L32.452 7.09C32.5943 6.34203 32.5126 5.56868 32.217 4.867L31.899 4.249C32.6464 3.97043 33.4384 3.83081 34.236 3.837C35.3562 3.80744 36.4663 4.05475 37.468 4.557C38.5469 4.14402 39.6842 3.90373 40.838 3.845H42.406C42.959 3.881 43.511 3.945 44.057 4.039C44.933 4.194 45.773 4.509 46.534 4.969C46.786 5.362 46.919 5.818 46.918 6.283L46.927 6.831V6.832Z" fill="#718096"/>
<path opacity="0.8" fill-rule="evenodd" clip-rule="evenodd" d="M55.276 17.939H56.871V25.431H55.276V17.939ZM56.032 14.669C56.593 14.672 57.047 15.115 57.047 15.66C57.0464 15.8594 56.9859 16.0539 56.8734 16.2185C56.7609 16.3831 56.6015 16.5101 56.416 16.583C56.033 16.738 55.591 16.653 55.298 16.367C55.1554 16.2293 55.0581 16.0514 55.0191 15.857C54.9802 15.6627 55.0014 15.461 55.08 15.279C55.24 14.907 55.617 14.666 56.032 14.669ZM64.002 13.256H62.277C62.277 9.256 60.364 7.762 59.607 7.331C58.851 7.766 56.942 9.261 56.942 13.256H55.217C55.217 7.165 59.144 5.666 59.311 5.606L59.607 5.5L59.908 5.606C60.075 5.666 64.002 7.149 64.002 13.256ZM83.23 13.256H81.5C81.5 9.256 79.587 7.762 78.835 7.331C78.079 7.766 76.17 9.261 76.17 13.256H74.44C74.44 7.165 78.367 5.666 78.539 5.606L78.835 5.5L79.135 5.606C79.315 5.666 83.23 7.149 83.23 13.256ZM93 25.42H91.275C91.275 21.424 89.362 19.93 88.605 19.495C87.85 19.929 85.941 21.424 85.941 25.42H84.215C84.215 19.328 88.142 17.834 88.309 17.773L88.606 17.667L88.906 17.773C89.073 17.834 93 19.316 93 25.42ZM68.764 17.79C68.931 17.85 72.858 19.328 72.845 25.436H71.115C71.115 21.44 69.202 19.946 68.451 19.511C67.695 19.946 65.786 21.441 65.786 25.436H64.06C64.031 23.974 64.316 22.522 64.896 21.172C64.4967 20.4926 63.9357 19.9224 63.263 19.512C62.506 19.95 60.597 21.444 60.597 25.436H58.872C58.872 19.328 62.799 17.85 62.966 17.789L63.266 17.684L63.563 17.789C64.4698 18.1773 65.2613 18.7927 65.861 19.576C66.4603 18.7911 67.2532 18.1754 68.162 17.789L68.463 17.684L68.763 17.789L68.764 17.79ZM78.781 24.993C77.2729 24.9726 75.7682 25.1433 74.303 25.501L78.985 19.581H74.612V17.907H82.549L82.239 18.252L78.292 23.3H78.505C79.939 23.2764 81.3711 23.4126 82.775 23.706C82.713 24.236 82.682 24.769 82.682 25.302V25.399C81.3991 25.13 80.0918 24.994 78.781 24.993ZM90.176 11.457C89.0627 10.1936 87.7711 9.09946 86.342 8.209V13.256H84.746V5.586L85.97 6.121C87.9075 7.15988 89.6592 8.5129 91.154 10.125V5.772H92.749V14.828C92.0009 13.6251 91.1393 12.4966 90.176 11.458V11.457ZM65.77 11.331C66.725 11.62 67.723 11.751 68.723 11.721C69.231 11.711 69.737 11.669 70.239 11.595L64.889 6.771C65.9149 6.10874 67.0798 5.69194 68.293 5.553H68.477L68.84 5.52H69.517C70.512 5.53 71.504 5.644 72.474 5.861L72.265 6.674L72.057 7.486C71.0387 7.2597 69.9953 7.16692 68.953 7.21C68.6351 7.2299 68.3186 7.26762 68.005 7.323L73.343 12.131C72.4408 12.7849 71.3844 13.1936 70.277 13.317C69.778 13.381 69.277 13.419 68.773 13.431H68.514C67.3794 13.4326 66.2518 13.2543 65.173 12.903L65.77 11.331Z" fill="#718096"/>
</g>
</g>
<defs>
<clipPath id="clip0_1_3138">
<rect width="90" height="28" fill="white" transform="translate(3 2.5)"/>
</clipPath>
</defs>
</svg>
